<svg width="20" height="20" viewBox="0 0 20 20" fill="none" xmlns="http://www.w3.org/2000/svg">
<g id="arrowhead-up">
<path id="&#240;&#159;&#142;&#168; Icon color" fill-rule="evenodd" clip-rule="evenodd" d="M10.0087 13.923L14.477 10.3271C14.8353 10.0388 15.3595 10.0955 15.6487 10.4538C15.937 10.813 15.8803 11.3371 15.522 11.6263L10.522 15.6496C10.2128 15.898 9.77116 15.8955 9.46616 15.6396L4.46616 11.473C4.112 11.1788 4.0645 10.6538 4.3595 10.2996C4.5245 10.1021 4.76116 9.99965 4.9995 9.99965C5.18783 9.99965 5.377 10.0638 5.53283 10.193L10.0087 13.923ZM10.522 9.8159C10.2128 10.0651 9.77113 10.0617 9.46613 9.80673L4.46613 5.64007C4.1128 5.34507 4.0653 4.82007 4.35947 4.46673C4.52447 4.2684 4.76113 4.16673 5.0003 4.16673C5.1878 4.16673 5.37697 4.23007 5.5328 4.36007L10.0086 8.08923L14.477 4.49423C14.8353 4.20507 15.3595 4.26173 15.6486 4.6209C15.9378 4.97923 15.8803 5.5034 15.522 5.79257L10.522 9.8159Z" fill="#545454"/>
<mask id="mask0" mask-type="alpha" maskUnits="userSpaceOnUse" x="4" y="4" width="12" height="12">
<path id="&#240;&#159;&#142;&#168; Icon color_2" fill-rule="evenodd" clip-rule="evenodd" d="M10.0087 13.923L14.477 10.3271C14.8353 10.0388 15.3595 10.0955 15.6487 10.4538C15.937 10.813 15.8803 11.3371 15.522 11.6263L10.522 15.6496C10.2128 15.898 9.77116 15.8955 9.46616 15.6396L4.46616 11.473C4.112 11.1788 4.0645 10.6538 4.3595 10.2996C4.5245 10.1021 4.76116 9.99965 4.9995 9.99965C5.18783 9.99965 5.377 10.0638 5.53283 10.193L10.0087 13.923ZM10.522 9.8159C10.2128 10.0651 9.77113 10.0617 9.46613 9.80673L4.46613 5.64007C4.1128 5.34507 4.0653 4.82007 4.35947 4.46673C4.52447 4.2684 4.76113 4.16673 5.0003 4.16673C5.1878 4.16673 5.37697 4.23007 5.5328 4.36007L10.0086 8.08923L14.477 4.49423C14.8353 4.20507 15.3595 4.26173 15.6486 4.6209C15.9378 4.97923 15.8803 5.5034 15.522 5.79257L10.522 9.8159Z" fill="white"/>
</mask>
<g mask="url(#mask0)">
</g>
</g>
</svg>
