<svg width="32" height="32" viewBox="0 0 32 32" fill="none" xmlns="http://www.w3.org/2000/svg">
<g id="calendar">
<path id="&#240;&#159;&#142;&#168; Icon color" fill-rule="evenodd" clip-rule="evenodd" d="M9.33356 21.3332C9.33356 20.5999 9.93356 19.9999 10.6669 19.9999C11.4002 19.9999 12.0002 20.5999 12.0002 21.3332C12.0002 22.0666 11.4002 22.6666 10.6669 22.6666C9.93356 22.6666 9.33356 22.0666 9.33356 21.3332ZM16.0005 19.9999H21.3338C22.0671 19.9999 22.6671 20.5999 22.6671 21.3332C22.6671 22.0666 22.0671 22.6666 21.3338 22.6666H16.0005C15.2671 22.6666 14.6671 22.0666 14.6671 21.3332C14.6671 20.5999 15.2671 19.9999 16.0005 19.9999ZM23.9998 26.6664H7.99977C7.2651 26.6664 6.66644 26.0678 6.66644 25.3331V17.3331H25.3331V25.3331C25.3331 26.0678 24.7344 26.6664 23.9998 26.6664ZM7.99977 7.99989H9.33311V9.33323C9.33311 10.0666 9.9331 10.6666 10.6664 10.6666C11.3998 10.6666 11.9998 10.0666 11.9998 9.33323V7.99989H19.9998V9.33323C19.9998 10.0666 20.5998 10.6666 21.3331 10.6666C22.0664 10.6666 22.6664 10.0666 22.6664 9.33323V7.99989H23.9998C24.7344 7.99989 25.3331 8.59856 25.3331 9.33323V14.6666H6.66644V9.33323C6.66644 8.59856 7.2651 7.99989 7.99977 7.99989ZM24 5.33317H22.6667V3.99984C22.6667 3.2665 22.0667 2.6665 21.3333 2.6665C20.6 2.6665 20 3.2665 20 3.99984V5.33317H12V3.99984C12 3.2665 11.4 2.6665 10.6667 2.6665C9.93333 2.6665 9.33333 3.2665 9.33333 3.99984V5.33317H8C5.79467 5.33317 4 7.12784 4 9.33317V25.3332C4 27.5385 5.79467 29.3332 8 29.3332H24C26.2053 29.3332 28 27.5385 28 25.3332V9.33317C28 7.12784 26.2053 5.33317 24 5.33317Z" fill="#C7C7CC"/>
<mask id="mask0" mask-type="alpha" maskUnits="userSpaceOnUse" x="4" y="2" width="24" height="28">
<path id="&#240;&#159;&#142;&#168; Icon color_2" fill-rule="evenodd" clip-rule="evenodd" d="M9.33356 21.3332C9.33356 20.5999 9.93356 19.9999 10.6669 19.9999C11.4002 19.9999 12.0002 20.5999 12.0002 21.3332C12.0002 22.0666 11.4002 22.6666 10.6669 22.6666C9.93356 22.6666 9.33356 22.0666 9.33356 21.3332ZM16.0005 19.9999H21.3338C22.0671 19.9999 22.6671 20.5999 22.6671 21.3332C22.6671 22.0666 22.0671 22.6666 21.3338 22.6666H16.0005C15.2671 22.6666 14.6671 22.0666 14.6671 21.3332C14.6671 20.5999 15.2671 19.9999 16.0005 19.9999ZM23.9998 26.6664H7.99977C7.2651 26.6664 6.66644 26.0678 6.66644 25.3331V17.3331H25.3331V25.3331C25.3331 26.0678 24.7344 26.6664 23.9998 26.6664ZM7.99977 7.99989H9.33311V9.33323C9.33311 10.0666 9.9331 10.6666 10.6664 10.6666C11.3998 10.6666 11.9998 10.0666 11.9998 9.33323V7.99989H19.9998V9.33323C19.9998 10.0666 20.5998 10.6666 21.3331 10.6666C22.0664 10.6666 22.6664 10.0666 22.6664 9.33323V7.99989H23.9998C24.7344 7.99989 25.3331 8.59856 25.3331 9.33323V14.6666H6.66644V9.33323C6.66644 8.59856 7.2651 7.99989 7.99977 7.99989ZM24 5.33317H22.6667V3.99984C22.6667 3.2665 22.0667 2.6665 21.3333 2.6665C20.6 2.6665 20 3.2665 20 3.99984V5.33317H12V3.99984C12 3.2665 11.4 2.6665 10.6667 2.6665C9.93333 2.6665 9.33333 3.2665 9.33333 3.99984V5.33317H8C5.79467 5.33317 4 7.12784 4 9.33317V25.3332C4 27.5385 5.79467 29.3332 8 29.3332H24C26.2053 29.3332 28 27.5385 28 25.3332V9.33317C28 7.12784 26.2053 5.33317 24 5.33317Z" fill="white"/>
</mask>
<g mask="url(#mask0)">
</g>
</g>
</svg>
